# xmcd
#
# Track frame offsets:
#	150
#	17216
#	30613
#	51628
#	66469
#	80805
#	101506
#	112667
#	131858
#	145882
#	165510
#	182824
#	195948
#	217259
#
# Disc length: 3326 seconds
#
# Revision: 0
# Processed by: cddbd v1.5.1PL0 Copyright (c) Steve Scherf et al.
# Submitted via: dBpowerAMP V4.0
#
DISCID=d00cfc0e
DTITLE=Champagne Charlie - Round 'n 'Round
DYEAR=1900
DGENRE=Blues
TTITLE0=Round 'n 'Round
TTITLE1=Jump Lil' Children
TTITLE2=Lowlands Delight
TTITLE3=Mobile Phone Blues
TTITLE4=Moonshine Pete's Home Brew
TTITLE5=Sweeter as the years roll by
TTITLE6=Taking the train is a pain
TTITLE7=W.O.V. Blues
TTITLE8=Trinidad
TTITLE9=J.J.'s Blues
TTITLE10=Personal Touch
TTITLE11=Keep Your Hands off Her
TTITLE12=Suitcase Full of Blues
TTITLE13=New Orleans
EXTD=
EXTT0=
EXTT1=
EXTT2=
EXTT3=
EXTT4=
EXTT5=
EXTT6=
EXTT7=
EXTT8=
EXTT9=
EXTT10=
EXTT11=
EXTT12=
EXTT13=
PLAYORDER=
